{"title":"Mrs Winterbourne (1996) Shirley MacLaine+Brendan Fraser DVDrip","uid":4417773,"size":729386199,"categoryP":"video","categoryS":"movies","magnet":"?xt=urn:btih:831e50b2be19a4be90ee7a430774a33f291f9853&amp;dn=Mrs+Winterbourne+%281996%29+Shirley+MacLaine%2BBrendan+Fraser+DVDrip&amp;tr=udp%3A%2F%2Ftracker.openbittorrent.com%3A80&amp;tr=udp%3A%2F%2Fopen.demonii.com%3A1337&amp;tr=udp%3A%2F%2Ftracker.coppersurfer.tk%3A6969&amp;tr=udp%3A%2F%2Fexodus.desync.com%3A6969","seeders":3,"leechers":1,"uploader":"Kuthumi","files":-1,"time":1222616623,"description":"aka Mrs. Winterbourne (1996) Mrs.Winterbourne (1996) \n &lt;a href=&quot;\nhttp://www.imdb.com/title/tt0117104/&quot; rel=&quot;nofollow&quot; target=&quot;_NEW&quot;&gt;\nhttp://www.imdb.com/title/tt0117104/&lt;/a&gt;\n\nWith Ricky Lake, Miguel Sandoval and Loren Dean\n\nEnglish subtitles in separate idx/sub files\n\nFeel-good film where a poor and pregnant Ricky Lake survives a train crash and wakes up with a filthy rich Shirley MacLaine as her mother-in-law, and Brendan Fraser's twin as her husband.\nSome of the comment writers on imdb are disappointed with Ricky Lake's performance as an actor, but Shirley has a field day, and Brendan Fraser is never dull.\n\nI don't understand why there is no torrent for this movie, and apologize on behalf of the American DVD producers with the irritating habit of cutting the widescreen. (Called 'Re-formatted to fit your TV' - most TVs now are WIDESCREEN!!!)\n\nDVDrip, 2-pass XviD fullscreen 624x464, great stereo AC3\nBurn tested, runs well in both my standalone DivX players.\n\n\nFormat/Info                      : Audio Video Interleave\nFile size                        : 695 MiB\nDuration                         : 1h 46mn\nOveral bit rate                  : 916 Kbps\n\nVideo\nFormat                           : MPEG-4 Visual\nFormat profile                   : Streaming Video@L1\nFormat settings, BVOP            : Yes\nFormat settings, QPel            : No\nFormat settings, GMC             : No warppoints\nFormat settings, Matrix          : Default\nMuxing mode                      : Packet Bitstream\nCodec ID                         : XVID\nCodec ID/Hint                    : XviD\nDuration                         : 1h 46mn\nBit rate                         : 779 Kbps\nWidth                            : 624 pixels\nHeight                           : 464 pixels\nDisplay aspect ratio             : 4/3\nFrame rate                       : 23.976 fps\nResolution                       : 8 bits\nColorimetry                      : 4:2:0\nScan type                        : Progressive\nBits/(Pixel*Frame)               : 0.112\nStream size                      : 591 MiB\nWriting library                  : XviD 1.2.0.dev47 (UTC 2006-11-01)\n\nAudio\nFormat                           : MPEG Audio\nFormat version                   : Version 1\nFormat profile                   : Layer 3\nCodec ID                         : 55\nCodec ID/Hint                    : MP3\nDuration                         : 1h 46mn\nBit rate mode                    : Constant\nBit rate                         : 128 Kbps\nMinimum bit rate                 : 128 Kbps\nChannel(s)                       : 2 channels\nSampling rate                    : 48.0 KHz\nResolution                       : 16 bits\nStream size                      : 97.1 MiB\nWriting library                  : LAME3.97 \nEncoding settings                : CBR\n\nSource: NTSC IVTC (note that PAL/NTSC will give no problems for avi files)\n","torrent":{"xt":"urn:btih:831e50b2be19a4be90ee7a430774a33f291f9853","amp;dn":"Mrs+Winterbourne+%281996%29+Shirley+MacLaine%2BBrendan+Fraser+DVDrip","amp;tr":["udp%3A%2F%2Ftracker.openbittorrent.com%3A80","udp%3A%2F%2Fopen.demonii.com%3A1337","udp%3A%2F%2Ftracker.coppersurfer.tk%3A6969","udp%3A%2F%2Fexodus.desync.com%3A6969"],"infoHash":"831e50b2be19a4be90ee7a430774a33f291f9853","infoHashBuffer":{"type":"Buffer","data":[131,30,80,178,190,25,164,190,144,238,122,67,7,116,163,63,41,31,152,83]},"announce":[],"urlList":[]}}